<svg width="93" height="80" viewBox="0 0 93 80" fill="none" xmlns="http://www.w3.org/2000/svg">
<g clip-path="url(#clip0_268_2035)">
<path d="M86.5349 8.33179C86.2261 7.42903 85.7221 6.60387 85.0582 5.91386C84.3943 5.22386 83.5864 4.68562 82.6909 4.33668C81.945 1.907 79.6423 0.136719 76.9219 0.136719C76.892 0.136719 76.8632 0.13672 76.8344 0.138758L75.8384 0.228443C75.7786 0.234172 75.7194 0.245086 75.6614 0.261057L61.0715 4.44471V4.27961C61.0715 4.03256 60.9724 3.79562 60.7961 3.62093C60.6197 3.44624 60.3805 3.34809 60.1311 3.34809C59.8817 3.34809 59.6425 3.44624 59.4661 3.62093C59.2898 3.79562 59.1907 4.03256 59.1907 4.27961V4.98487L47.6093 8.30631H45.2984L17.2462 0.261057C17.1889 0.242898 17.1294 0.231941 17.0693 0.228443L16.0712 0.138758C16.0445 0.13672 16.0116 0.136719 15.9869 0.136719C13.2644 0.136719 10.9596 1.90904 10.2188 4.33668C9.31933 4.68393 8.50748 5.22196 7.84022 5.913C7.17296 6.60405 6.66647 7.43136 6.35628 8.33689C3.01439 8.64875 0.389648 11.4413 0.389648 14.832V72.6225C0.391011 74.3523 1.0853 76.011 2.3201 77.2343C3.55489 78.4576 5.22928 79.1455 6.97569 79.1471H46.3376C46.3664 79.1522 46.3931 79.1624 46.4189 79.1624H46.5403C46.5639 79.1624 46.5907 79.1522 46.6185 79.1471H86.0225C87.7691 79.1458 89.4438 78.458 90.6788 77.2346C91.9138 76.0113 92.6082 74.3525 92.6096 72.6225V14.831C92.6117 11.4056 89.9272 8.59066 86.5349 8.33179ZM8.40381 8.30631C8.77607 7.5846 9.33087 6.9708 10.014 6.52482V64.8493C10.014 67.4034 11.6819 69.6496 14.1636 70.4405L14.2285 70.4598L33.2581 75.3579L11.7066 72.2189L11.15 72.0833C10.2146 71.7741 9.40148 71.1807 8.82596 70.3876C8.25043 69.5946 7.9418 68.642 7.94389 67.6653V10.2764C7.94389 10.2386 7.93257 10.2081 7.92845 10.1714C7.92228 10.1194 7.92022 10.0664 7.90685 10.0195C7.96036 9.42222 8.12907 8.84064 8.40381 8.30631ZM6.97774 77.2851C5.73043 77.283 4.53486 76.7911 3.65307 75.9173C2.77129 75.0435 2.27521 73.859 2.27358 72.6235V14.831C2.27493 13.7602 2.64791 12.7224 3.32999 11.8917C4.01207 11.0609 4.96176 10.4877 6.01983 10.2682C6.01777 10.3171 6.01057 10.364 6.01057 10.4129C6.01212 10.5183 6.03017 10.6228 6.06407 10.7227V67.6653C6.06072 69.041 6.49798 70.3824 7.31295 71.4964C8.12792 72.6104 9.27861 73.4396 10.5995 73.8648C10.6211 73.873 10.6437 73.8791 10.6653 73.8852L11.3002 74.0381L11.3887 74.0564L33.5575 77.2851H6.97774ZM45.8746 10.5067V76.6777L15.245 68.7853L14.709 68.6559C13.0236 68.1046 11.8959 66.5799 11.8959 64.8493V5.896C11.8959 5.86848 11.8856 5.83994 11.8846 5.81243C11.8795 5.76045 11.8784 5.70745 11.863 5.65751C11.8867 5.37928 11.9474 5.1092 12.0276 4.85034C12.1342 4.51425 12.2843 4.19325 12.4742 3.89538C12.8478 3.31793 13.3611 2.84207 13.9676 2.51102C14.574 2.17997 15.2543 2.00423 15.9467 1.99974L16.81 2.07822L33.3281 6.81528L38.5343 8.30631L39.9337 8.70786L45.0339 10.1704L45.8735 10.4119L45.8746 10.5067ZM83.0377 64.8504V6.63285C83.6116 7.03864 84.0854 7.56788 84.4234 8.18089C84.7615 8.79389 84.955 9.47474 84.9895 10.1724C84.9957 10.2529 85.0039 10.3334 85.0039 10.415C85.0039 10.5678 85.042 10.7146 85.1109 10.844V67.6663C85.1109 69.6251 83.7507 71.4372 81.7978 72.0854L81.2422 72.2189L59.6691 75.362L78.1555 70.5984L78.7266 70.4608C78.749 70.4559 78.7711 70.4491 78.7924 70.4405C81.2916 69.6445 83.0377 67.3443 83.0377 64.8504ZM62.9544 10.8053C67.1061 10.8053 70.4809 14.1512 70.4809 18.2625C70.4809 22.3738 67.1061 25.7207 62.9544 25.7207C58.8028 25.7207 55.4269 22.3748 55.4269 18.2625C55.4269 14.1512 58.8028 10.8053 62.9544 10.8053ZM47.1288 10.4924V10.3864L47.8768 10.1714L52.9874 8.70582L54.3785 8.30529L59.1938 6.92535V9.726C58.8899 9.85892 58.5935 10.0079 58.3058 10.1724C55.4681 11.7776 53.5482 14.8024 53.5482 18.2635C53.5482 22.0772 55.8766 25.3579 59.1938 26.799V32.0956C55.8735 33.5367 53.5482 36.8184 53.5482 40.6331C53.5482 44.4468 55.8766 47.7295 59.1938 49.1716V54.6149C59.1938 54.862 59.2929 55.0989 59.4692 55.2736C59.6456 55.4483 59.8848 55.5465 60.1342 55.5465C60.3836 55.5465 60.6228 55.4483 60.7992 55.2736C60.9755 55.0989 61.0746 54.862 61.0746 54.6149V49.7658C61.6941 49.8918 62.3251 49.9546 62.9575 49.9533C68.1463 49.9533 72.3679 45.7727 72.3679 40.6331C72.3679 35.4914 68.1463 31.3118 62.9575 31.3118C62.3124 31.3118 61.6837 31.375 61.0746 31.4994V27.3962C61.694 27.5233 62.325 27.5871 62.9575 27.5868C68.1463 27.5868 72.3679 23.4042 72.3679 18.2656C72.3665 16.6208 71.9254 15.0058 71.0896 13.5847C70.2537 12.1635 69.0529 10.9869 67.6092 10.1744C65.632 9.0497 63.3079 8.67997 61.0746 9.13489V6.38723L76.1008 2.07822L76.964 1.99974C77.6559 2.00501 78.3354 2.18124 78.9411 2.51244C79.5467 2.84363 80.0594 3.31933 80.4325 3.8964C80.6228 4.19094 80.7772 4.51096 80.8831 4.85238C80.9799 5.16118 81.0344 5.48324 81.0519 5.81956C81.057 5.88479 81.0632 5.95001 81.0632 6.0183C81.0632 6.16404 81.0961 6.30162 81.1579 6.428V64.8483C81.1579 66.534 79.9643 68.0974 78.2491 68.6559L47.1329 76.6645V10.4924H47.1288ZM62.9544 33.1759C67.1061 33.1759 70.4809 36.5218 70.4809 40.6321C70.4809 44.7444 67.1061 48.0872 62.9544 48.0872C58.8028 48.0872 55.4269 44.7444 55.4269 40.6321C55.4269 36.5228 58.8028 33.1759 62.9544 33.1759ZM90.7288 72.6235C90.7271 73.859 90.2311 75.0435 89.3493 75.9173C88.4675 76.7911 87.2719 77.283 86.0246 77.2851H59.3934L81.5612 74.0585L81.6497 74.0401L82.2845 73.8873L82.3493 73.8669C85.0811 72.9812 86.9907 70.4313 86.9907 67.6683V10.2713C88.0471 10.4924 88.9948 11.0661 89.6752 11.8965C90.3557 12.7269 90.7276 13.7635 90.7288 14.833V72.6235Z" fill="#F0F0F0"/>
<path d="M65.4506 23.4133C65.4271 23.2622 65.3733 23.1172 65.2926 22.9868C65.2118 22.8564 65.1056 22.7433 64.9803 22.654C64.8549 22.5648 64.7128 22.5011 64.5623 22.4668C64.4118 22.4325 64.256 22.4283 64.1038 22.4543C63.7984 22.5058 63.5258 22.6745 63.3453 22.924C63.1647 23.1734 63.0909 23.4833 63.1397 23.7863C63.1635 23.9371 63.2174 24.0817 63.2981 24.2117C63.3789 24.3416 63.4849 24.4544 63.61 24.5435C63.7351 24.6325 63.8769 24.696 64.027 24.7303C64.1771 24.7647 64.3326 24.7691 64.4845 24.7433C65.1204 24.6414 65.5546 24.0442 65.4506 23.4133Z" fill="#F0F0F0"/>
<path d="M61.8451 23.1129C61.0372 22.9323 60.2871 22.5562 59.6619 22.0182C59.0367 21.4801 58.5559 20.797 58.2625 20.0299C58.1974 19.8845 58.0786 19.7694 57.9305 19.7082C57.7824 19.6469 57.6162 19.6442 57.4661 19.7006C57.316 19.7569 57.1934 19.8681 57.1236 20.0113C57.0537 20.1544 57.0419 20.3187 57.0905 20.4702C57.4568 21.4298 58.0578 22.2843 58.8397 22.957C59.6216 23.6298 60.5599 24.0997 61.5704 24.3246C61.6509 24.3429 61.7343 24.3452 61.8157 24.3314C61.8972 24.3176 61.9751 24.2881 62.0449 24.2444C62.1148 24.2008 62.1753 24.1439 62.2229 24.077C62.2706 24.0102 62.3044 23.9347 62.3225 23.8548C62.3573 23.6938 62.3267 23.5258 62.2373 23.3869C62.148 23.2481 62.0071 23.1496 61.8451 23.1129Z" fill="#F0F0F0"/>
<path d="M65.4504 45.9582C65.4257 45.8077 65.3712 45.6635 65.2901 45.5339C65.2089 45.4043 65.1027 45.2918 64.9776 45.203C64.8524 45.1142 64.7108 45.0507 64.5608 45.0163C64.4108 44.9818 64.2554 44.977 64.1036 45.0022C63.798 45.053 63.5251 45.2214 63.3444 45.4708C63.1638 45.7202 63.0901 46.0303 63.1395 46.3333C63.1639 46.4838 63.218 46.628 63.2989 46.7577C63.3798 46.8873 63.4859 46.9998 63.6109 47.0887C63.7359 47.1776 63.8774 47.2411 64.0273 47.2755C64.1773 47.3099 64.3325 47.3146 64.4843 47.2892C65.1202 47.1873 65.5544 46.5911 65.4504 45.9582Z" fill="#F0F0F0"/>
<path d="M57.0885 43.0201C57.4547 43.9797 58.0558 44.8342 58.8377 45.5069C59.6196 46.1797 60.5579 46.6496 61.5683 46.8745C61.7307 46.9109 61.901 46.8819 62.0418 46.7938C62.1825 46.7058 62.2822 46.566 62.3189 46.4052C62.3556 46.2444 62.3263 46.0757 62.2375 45.9363C62.1486 45.7968 62.0075 45.6981 61.8451 45.6617C61.0372 45.4819 60.287 45.1062 59.6618 44.5683C59.0367 44.0304 58.5562 43.3471 58.2635 42.5798C58.2046 42.4254 58.0861 42.3006 57.9343 42.2328C57.7824 42.1649 57.6096 42.1596 57.4537 42.218C57.2979 42.2764 57.1719 42.3937 57.1034 42.5441C57.0349 42.6945 57.0295 42.8657 57.0885 43.0201Z" fill="#F0F0F0"/>
<path d="M17.8995 13.2637L40.8307 19.8403C40.91 19.8631 40.993 19.8702 41.075 19.8611C41.157 19.8521 41.2364 19.8272 41.3087 19.7878C41.381 19.7484 41.4447 19.6952 41.4962 19.6314C41.5478 19.5676 41.5861 19.4944 41.6091 19.4159C41.6321 19.3374 41.6392 19.2552 41.6301 19.1739C41.621 19.0927 41.5958 19.014 41.556 18.9424C41.5163 18.8709 41.4626 18.8077 41.3982 18.7567C41.3338 18.7056 41.2598 18.6676 41.1806 18.6449L18.2503 12.0692C18.0904 12.0236 17.9188 12.0427 17.7731 12.1224C17.6274 12.2021 17.5197 12.3358 17.4735 12.4942C17.4273 12.6522 17.4462 12.8219 17.526 12.9661C17.6059 13.1103 17.7402 13.2173 17.8995 13.2637Z" fill="#F0F0F0"/>
<path d="M41.1809 24.615L18.2506 18.0404C18.1716 18.0176 18.0888 18.0104 18.0069 18.0193C17.9251 18.0282 17.8458 18.053 17.7736 18.0922C17.7014 18.1314 17.6378 18.1843 17.5862 18.2479C17.5347 18.3115 17.4963 18.3846 17.4733 18.4629C17.4502 18.5412 17.443 18.6232 17.452 18.7043C17.4609 18.7853 17.4859 18.8639 17.5255 18.9354C17.5651 19.0069 17.6186 19.0699 17.6828 19.121C17.747 19.172 17.8207 19.21 17.8998 19.2328L40.831 25.8095C40.9102 25.8323 40.9931 25.8394 41.0751 25.8304C41.157 25.8214 41.2364 25.7965 41.3086 25.7571C41.3809 25.7178 41.4446 25.6647 41.4961 25.6009C41.5476 25.5372 41.5859 25.464 41.6089 25.3855C41.6319 25.3071 41.639 25.2249 41.63 25.1438C41.6209 25.0626 41.5958 24.984 41.556 24.9124C41.5163 24.8409 41.4627 24.7778 41.3983 24.7268C41.3339 24.6757 41.26 24.6378 41.1809 24.615Z" fill="#F0F0F0"/>
<path d="M41.1807 30.2166L18.2505 23.64C18.0932 23.6029 17.9276 23.6272 17.7879 23.7078C17.6482 23.7883 17.5452 23.919 17.5001 24.0728C17.455 24.2266 17.4713 24.3916 17.5457 24.5338C17.6201 24.6759 17.7468 24.7843 17.8996 24.8365L40.8309 31.4111C40.9102 31.4338 40.9933 31.4408 41.0753 31.4317C41.1574 31.4226 41.2368 31.3975 41.3091 31.358C41.3813 31.3184 41.445 31.2651 41.4964 31.2011C41.5478 31.1371 41.586 31.0637 41.6087 30.9851C41.6546 30.827 41.6352 30.6573 41.555 30.5133C41.4748 30.3692 41.3402 30.2626 41.1807 30.2166Z" fill="#F0F0F0"/>
<path d="M41.1809 35.4686L18.2506 28.8919C18.1713 28.8691 18.0883 28.862 18.0062 28.871C17.9241 28.8799 17.8446 28.9048 17.7722 28.9443C17.626 29.0239 17.5178 29.1577 17.4713 29.3164C17.4247 29.4751 17.4437 29.6455 17.5241 29.7903C17.6045 29.9351 17.7396 30.0423 17.8998 30.0884L40.831 36.663C40.991 36.709 41.1627 36.6901 41.3086 36.6106C41.4545 36.5311 41.5625 36.3974 41.6089 36.239C41.6553 36.0806 41.6363 35.9105 41.556 35.766C41.4757 35.6215 41.3408 35.5145 41.1809 35.4686Z" fill="#F0F0F0"/>
<path d="M41.1806 41.0716L18.2503 34.496C18.0905 34.4515 17.9193 34.4711 17.7739 34.5507C17.6285 34.6302 17.5206 34.7632 17.4735 34.921C17.4273 35.079 17.4462 35.2487 17.526 35.3929C17.6059 35.5371 17.7402 35.6441 17.8995 35.6905L40.8307 42.2671C40.8877 42.2828 40.9466 42.2904 41.0057 42.2895C41.2793 42.2895 41.5304 42.1142 41.6086 41.8421C41.6316 41.7637 41.6388 41.6816 41.6297 41.6004C41.6206 41.5192 41.5955 41.4406 41.5557 41.369C41.516 41.2975 41.4624 41.2344 41.398 41.1834C41.3337 41.1323 41.2598 41.0944 41.1806 41.0716Z" fill="#F0F0F0"/>
<path d="M41.1809 46.7469L18.2506 40.1713C18.1715 40.1485 18.0886 40.1413 18.0067 40.1502C17.9248 40.1591 17.8455 40.1839 17.7733 40.2232C17.701 40.2624 17.6373 40.3154 17.5858 40.3791C17.5342 40.4428 17.4958 40.5159 17.4728 40.5942C17.4497 40.6726 17.4425 40.7547 17.4515 40.8358C17.4605 40.9169 17.4855 40.9955 17.5252 41.0671C17.5648 41.1386 17.6183 41.2017 17.6826 41.2528C17.7469 41.3039 17.8207 41.3419 17.8998 41.3647L40.831 47.9414C40.9102 47.9641 40.9931 47.9712 41.0751 47.9622C41.157 47.9532 41.2364 47.9283 41.3086 47.8889C41.3808 47.8496 41.4445 47.7965 41.4961 47.7327C41.5476 47.669 41.5859 47.5958 41.6089 47.5174C41.6319 47.439 41.639 47.3568 41.6299 47.2756C41.6208 47.1945 41.5957 47.1159 41.556 47.0443C41.5162 46.9728 41.4626 46.9097 41.3983 46.8587C41.3339 46.8076 41.26 46.7696 41.1809 46.7469Z" fill="#F0F0F0"/>
<path d="M41.1806 52.3495L18.2504 45.7728C18.0941 45.7382 17.9304 45.7639 17.7926 45.8447C17.6547 45.9254 17.5531 46.0551 17.5084 46.2074C17.4637 46.3597 17.4793 46.5232 17.5519 46.6645C17.6246 46.8059 17.7489 46.9145 17.8995 46.9683L40.8308 53.5419C40.9112 53.5695 40.9964 53.5807 41.0814 53.5747C41.1663 53.5686 41.2491 53.5456 41.3247 53.5068C41.4003 53.4681 41.4672 53.4146 41.5213 53.3495C41.5753 53.2843 41.6155 53.209 41.6392 53.128C41.663 53.0471 41.6699 52.9622 41.6594 52.8785C41.649 52.7948 41.6215 52.7141 41.5786 52.6412C41.5357 52.5684 41.4783 52.505 41.4099 52.4548C41.3415 52.4047 41.2635 52.3688 41.1806 52.3495Z" fill="#F0F0F0"/>
<path d="M41.1809 57.6018L18.2506 51.0272C18.0937 50.9896 17.9283 51.0134 17.7886 51.0935C17.6489 51.1737 17.5458 51.304 17.5007 51.4575C17.4555 51.611 17.4718 51.7758 17.5461 51.9177C17.6204 52.0596 17.7471 52.1677 17.8998 52.2196L40.831 58.7942C40.9101 58.8174 40.993 58.8249 41.0749 58.8163C41.1569 58.8076 41.2364 58.7829 41.3087 58.7437C41.381 58.7045 41.4448 58.6515 41.4963 58.5877C41.5478 58.524 41.5861 58.4507 41.6089 58.3722C41.6319 58.2938 41.639 58.2117 41.63 58.1305C41.6209 58.0493 41.5958 57.9707 41.556 57.8992C41.5163 57.8276 41.4627 57.7645 41.3983 57.7135C41.3339 57.6625 41.26 57.6245 41.1809 57.6018Z" fill="#F0F0F0"/>
<path d="M41.1809 63.2025L18.2507 56.6279C18.0909 56.5822 17.9194 56.6012 17.7737 56.6807C17.6281 56.7602 17.5202 56.8937 17.4739 57.0519C17.4278 57.2103 17.4468 57.3802 17.5265 57.5249C17.6063 57.6695 17.7404 57.7771 17.8998 57.8244L40.8311 64.399C40.9103 64.4218 40.9932 64.4289 41.0751 64.4199C41.1571 64.4109 41.2365 64.386 41.3087 64.3466C41.3809 64.3073 41.4446 64.2542 41.4961 64.1904C41.5477 64.1267 41.586 64.0535 41.6089 63.975C41.6322 63.8965 41.6396 63.8141 41.6307 63.7327C41.6218 63.6513 41.5967 63.5725 41.557 63.5007C41.5172 63.4289 41.4635 63.3656 41.399 63.3144C41.3344 63.2633 41.2603 63.2252 41.1809 63.2025Z" fill="#F0F0F0"/>
</g>
<defs>
<clipPath id="clip0_268_2035">
<rect width="92.22" height="79.0257" fill="white" transform="translate(0.389648 0.138672)"/>
</clipPath>
</defs>
</svg>
